# xmcd
#
# Track frame offsets: 
#        150
#        15190
#        32027
#
# Disc length: 626 seconds
#
# Revision: 2
# Processed by: cddbd v1.5.2PL0 Copyright (c) Steve Scherf et al.
# Submitted via: ExactAudioCopy v0.99pb3
#
DISCID=13027003
DTITLE=Vanessa Brown - Whipped [CD Single)
DYEAR=2005
DGENRE=Pop
TTITLE0=Whipped (Radio Edit)
TTITLE1=Whipped (Album Version)
TTITLE2=Whipped (Instrumental)
EXTD=YEAR: 2005
EXTT0=
EXTT1=
EXTT2=
PLAYORDER=
